<mxfile host="app.diagrams.net" modified="2020-11-27T02:06:15.265Z" agent="5.0 (Windows NT 10.0; Win64; x64) AppleWebKit/537.36 (KHTML, like Gecko) Chrome/86.0.4240.198 Safari/537.36" etag="ecXpaqDKvI6srRELn9BF" version="13.9.8" type="github">
  <diagram id="NNTuGAdMriQpNlfNmJwW" name="Page-1">
    <mxGraphModel dx="913" dy="895" grid="1" gridSize="10" guides="1" tooltips="1" connect="1" arrows="1" fold="1" page="1" pageScale="1" pageWidth="827" pageHeight="1169" math="0" shadow="0">
      <root>
        <mxCell id="0" />
        <mxCell id="1" parent="0" />
        <mxCell id="Z3845SJDid5yeBMDomHs-39" style="edgeStyle=orthogonalEdgeStyle;rounded=0;orthogonalLoop=1;jettySize=auto;html=1;exitX=0;exitY=0.75;exitDx=0;exitDy=0;" edge="1" parent="1" source="Z3845SJDid5yeBMDomHs-1">
          <mxGeometry relative="1" as="geometry">
            <mxPoint x="79.66666666666674" y="110" as="targetPoint" />
          </mxGeometry>
        </mxCell>
        <mxCell id="Z3845SJDid5yeBMDomHs-1" value="" style="rounded=0;whiteSpace=wrap;html=1;" vertex="1" parent="1">
          <mxGeometry x="80" y="80" width="120" height="120" as="geometry" />
        </mxCell>
        <mxCell id="Z3845SJDid5yeBMDomHs-5" value="" style="endArrow=none;html=1;entryX=1;entryY=0.333;entryDx=0;entryDy=0;entryPerimeter=0;" edge="1" parent="1" target="Z3845SJDid5yeBMDomHs-1">
          <mxGeometry width="50" height="50" relative="1" as="geometry">
            <mxPoint x="80" y="120" as="sourcePoint" />
            <mxPoint x="130" y="70" as="targetPoint" />
          </mxGeometry>
        </mxCell>
        <mxCell id="Z3845SJDid5yeBMDomHs-8" value="" style="endArrow=none;html=1;entryX=0.082;entryY=0.001;entryDx=0;entryDy=0;entryPerimeter=0;" edge="1" parent="1" target="Z3845SJDid5yeBMDomHs-1">
          <mxGeometry width="50" height="50" relative="1" as="geometry">
            <mxPoint x="90" y="120" as="sourcePoint" />
            <mxPoint x="140" y="70" as="targetPoint" />
          </mxGeometry>
        </mxCell>
        <mxCell id="Z3845SJDid5yeBMDomHs-10" value="" style="endArrow=none;html=1;entryX=0.916;entryY=0.004;entryDx=0;entryDy=0;entryPerimeter=0;" edge="1" parent="1" target="Z3845SJDid5yeBMDomHs-1">
          <mxGeometry width="50" height="50" relative="1" as="geometry">
            <mxPoint x="190" y="120" as="sourcePoint" />
            <mxPoint x="240" y="70" as="targetPoint" />
          </mxGeometry>
        </mxCell>
        <mxCell id="Z3845SJDid5yeBMDomHs-11" value="" style="endArrow=none;html=1;entryX=0.415;entryY=0.001;entryDx=0;entryDy=0;entryPerimeter=0;" edge="1" parent="1" target="Z3845SJDid5yeBMDomHs-1">
          <mxGeometry width="50" height="50" relative="1" as="geometry">
            <mxPoint x="130" y="120" as="sourcePoint" />
            <mxPoint x="180" y="70" as="targetPoint" />
          </mxGeometry>
        </mxCell>
        <mxCell id="Z3845SJDid5yeBMDomHs-12" value="" style="endArrow=none;html=1;" edge="1" parent="1">
          <mxGeometry width="50" height="50" relative="1" as="geometry">
            <mxPoint x="80" y="160" as="sourcePoint" />
            <mxPoint x="130" y="160" as="targetPoint" />
          </mxGeometry>
        </mxCell>
        <mxCell id="Z3845SJDid5yeBMDomHs-13" value="" style="endArrow=none;html=1;" edge="1" parent="1">
          <mxGeometry width="50" height="50" relative="1" as="geometry">
            <mxPoint x="90" y="200" as="sourcePoint" />
            <mxPoint x="90" y="160" as="targetPoint" />
          </mxGeometry>
        </mxCell>
        <mxCell id="Z3845SJDid5yeBMDomHs-14" value="" style="endArrow=none;html=1;" edge="1" parent="1">
          <mxGeometry width="50" height="50" relative="1" as="geometry">
            <mxPoint x="130" y="200" as="sourcePoint" />
            <mxPoint x="130" y="160" as="targetPoint" />
          </mxGeometry>
        </mxCell>
        <mxCell id="Z3845SJDid5yeBMDomHs-54" style="edgeStyle=orthogonalEdgeStyle;rounded=0;orthogonalLoop=1;jettySize=auto;html=1;exitX=0;exitY=0.75;exitDx=0;exitDy=0;" edge="1" parent="1" source="Z3845SJDid5yeBMDomHs-15">
          <mxGeometry relative="1" as="geometry">
            <mxPoint x="239.66666666666674" y="110" as="targetPoint" />
          </mxGeometry>
        </mxCell>
        <mxCell id="Z3845SJDid5yeBMDomHs-15" value="" style="rounded=0;whiteSpace=wrap;html=1;" vertex="1" parent="1">
          <mxGeometry x="240" y="80" width="120" height="120" as="geometry" />
        </mxCell>
        <mxCell id="Z3845SJDid5yeBMDomHs-16" value="" style="endArrow=none;html=1;entryX=1;entryY=0.333;entryDx=0;entryDy=0;entryPerimeter=0;" edge="1" parent="1" target="Z3845SJDid5yeBMDomHs-15">
          <mxGeometry width="50" height="50" relative="1" as="geometry">
            <mxPoint x="240.00000000000006" y="120" as="sourcePoint" />
            <mxPoint x="290" y="70" as="targetPoint" />
          </mxGeometry>
        </mxCell>
        <mxCell id="Z3845SJDid5yeBMDomHs-17" value="" style="endArrow=none;html=1;entryX=0.082;entryY=0.001;entryDx=0;entryDy=0;entryPerimeter=0;" edge="1" parent="1" target="Z3845SJDid5yeBMDomHs-15">
          <mxGeometry width="50" height="50" relative="1" as="geometry">
            <mxPoint x="250.00000000000006" y="120" as="sourcePoint" />
            <mxPoint x="300" y="70" as="targetPoint" />
          </mxGeometry>
        </mxCell>
        <mxCell id="Z3845SJDid5yeBMDomHs-18" value="" style="endArrow=none;html=1;entryX=0.916;entryY=0.004;entryDx=0;entryDy=0;entryPerimeter=0;" edge="1" parent="1" target="Z3845SJDid5yeBMDomHs-15">
          <mxGeometry width="50" height="50" relative="1" as="geometry">
            <mxPoint x="350" y="120" as="sourcePoint" />
            <mxPoint x="400" y="70" as="targetPoint" />
          </mxGeometry>
        </mxCell>
        <mxCell id="Z3845SJDid5yeBMDomHs-19" value="" style="endArrow=none;html=1;entryX=0.415;entryY=0.001;entryDx=0;entryDy=0;entryPerimeter=0;" edge="1" parent="1" target="Z3845SJDid5yeBMDomHs-15">
          <mxGeometry width="50" height="50" relative="1" as="geometry">
            <mxPoint x="290.00000000000006" y="120" as="sourcePoint" />
            <mxPoint x="340" y="70" as="targetPoint" />
          </mxGeometry>
        </mxCell>
        <mxCell id="Z3845SJDid5yeBMDomHs-20" value="" style="endArrow=none;html=1;" edge="1" parent="1">
          <mxGeometry width="50" height="50" relative="1" as="geometry">
            <mxPoint x="240.00000000000006" y="160" as="sourcePoint" />
            <mxPoint x="290.00000000000006" y="160" as="targetPoint" />
          </mxGeometry>
        </mxCell>
        <mxCell id="Z3845SJDid5yeBMDomHs-21" value="" style="endArrow=none;html=1;" edge="1" parent="1">
          <mxGeometry width="50" height="50" relative="1" as="geometry">
            <mxPoint x="250.00000000000006" y="200" as="sourcePoint" />
            <mxPoint x="250.00000000000006" y="160" as="targetPoint" />
          </mxGeometry>
        </mxCell>
        <mxCell id="Z3845SJDid5yeBMDomHs-22" value="" style="endArrow=none;html=1;" edge="1" parent="1">
          <mxGeometry width="50" height="50" relative="1" as="geometry">
            <mxPoint x="290.00000000000006" y="200" as="sourcePoint" />
            <mxPoint x="290.00000000000006" y="160" as="targetPoint" />
          </mxGeometry>
        </mxCell>
        <mxCell id="Z3845SJDid5yeBMDomHs-56" style="edgeStyle=orthogonalEdgeStyle;rounded=0;orthogonalLoop=1;jettySize=auto;html=1;exitX=0;exitY=0.75;exitDx=0;exitDy=0;" edge="1" parent="1" source="Z3845SJDid5yeBMDomHs-23">
          <mxGeometry relative="1" as="geometry">
            <mxPoint x="399.66666666666674" y="110" as="targetPoint" />
          </mxGeometry>
        </mxCell>
        <mxCell id="Z3845SJDid5yeBMDomHs-23" value="" style="rounded=0;whiteSpace=wrap;html=1;" vertex="1" parent="1">
          <mxGeometry x="400" y="80" width="120" height="120" as="geometry" />
        </mxCell>
        <mxCell id="Z3845SJDid5yeBMDomHs-24" value="" style="endArrow=none;html=1;entryX=1;entryY=0.333;entryDx=0;entryDy=0;entryPerimeter=0;" edge="1" parent="1" target="Z3845SJDid5yeBMDomHs-23">
          <mxGeometry width="50" height="50" relative="1" as="geometry">
            <mxPoint x="400" y="120" as="sourcePoint" />
            <mxPoint x="450" y="70" as="targetPoint" />
          </mxGeometry>
        </mxCell>
        <mxCell id="Z3845SJDid5yeBMDomHs-25" value="" style="endArrow=none;html=1;entryX=0.082;entryY=0.001;entryDx=0;entryDy=0;entryPerimeter=0;" edge="1" parent="1" target="Z3845SJDid5yeBMDomHs-23">
          <mxGeometry width="50" height="50" relative="1" as="geometry">
            <mxPoint x="410" y="120" as="sourcePoint" />
            <mxPoint x="460" y="70" as="targetPoint" />
          </mxGeometry>
        </mxCell>
        <mxCell id="Z3845SJDid5yeBMDomHs-26" value="" style="endArrow=none;html=1;entryX=0.916;entryY=0.004;entryDx=0;entryDy=0;entryPerimeter=0;" edge="1" parent="1" target="Z3845SJDid5yeBMDomHs-23">
          <mxGeometry width="50" height="50" relative="1" as="geometry">
            <mxPoint x="510" y="120" as="sourcePoint" />
            <mxPoint x="560" y="70" as="targetPoint" />
          </mxGeometry>
        </mxCell>
        <mxCell id="Z3845SJDid5yeBMDomHs-27" value="" style="endArrow=none;html=1;entryX=0.415;entryY=0.001;entryDx=0;entryDy=0;entryPerimeter=0;" edge="1" parent="1" target="Z3845SJDid5yeBMDomHs-23">
          <mxGeometry width="50" height="50" relative="1" as="geometry">
            <mxPoint x="450" y="120" as="sourcePoint" />
            <mxPoint x="500" y="70" as="targetPoint" />
          </mxGeometry>
        </mxCell>
        <mxCell id="Z3845SJDid5yeBMDomHs-28" value="" style="endArrow=none;html=1;" edge="1" parent="1">
          <mxGeometry width="50" height="50" relative="1" as="geometry">
            <mxPoint x="400" y="160" as="sourcePoint" />
            <mxPoint x="450" y="160" as="targetPoint" />
          </mxGeometry>
        </mxCell>
        <mxCell id="Z3845SJDid5yeBMDomHs-29" value="" style="endArrow=none;html=1;" edge="1" parent="1">
          <mxGeometry width="50" height="50" relative="1" as="geometry">
            <mxPoint x="410" y="200" as="sourcePoint" />
            <mxPoint x="410" y="160" as="targetPoint" />
          </mxGeometry>
        </mxCell>
        <mxCell id="Z3845SJDid5yeBMDomHs-30" value="" style="endArrow=none;html=1;" edge="1" parent="1">
          <mxGeometry width="50" height="50" relative="1" as="geometry">
            <mxPoint x="450" y="200" as="sourcePoint" />
            <mxPoint x="450" y="160" as="targetPoint" />
          </mxGeometry>
        </mxCell>
        <mxCell id="Z3845SJDid5yeBMDomHs-57" style="edgeStyle=orthogonalEdgeStyle;rounded=0;orthogonalLoop=1;jettySize=auto;html=1;exitX=0;exitY=0.75;exitDx=0;exitDy=0;" edge="1" parent="1" source="Z3845SJDid5yeBMDomHs-31">
          <mxGeometry relative="1" as="geometry">
            <mxPoint x="559.6666666666667" y="110" as="targetPoint" />
          </mxGeometry>
        </mxCell>
        <mxCell id="Z3845SJDid5yeBMDomHs-31" value="" style="rounded=0;whiteSpace=wrap;html=1;" vertex="1" parent="1">
          <mxGeometry x="560" y="80" width="120" height="120" as="geometry" />
        </mxCell>
        <mxCell id="Z3845SJDid5yeBMDomHs-32" value="" style="endArrow=none;html=1;entryX=1;entryY=0.333;entryDx=0;entryDy=0;entryPerimeter=0;" edge="1" parent="1" target="Z3845SJDid5yeBMDomHs-31">
          <mxGeometry width="50" height="50" relative="1" as="geometry">
            <mxPoint x="560" y="120" as="sourcePoint" />
            <mxPoint x="610" y="70" as="targetPoint" />
          </mxGeometry>
        </mxCell>
        <mxCell id="Z3845SJDid5yeBMDomHs-33" value="" style="endArrow=none;html=1;entryX=0.082;entryY=0.001;entryDx=0;entryDy=0;entryPerimeter=0;" edge="1" parent="1" target="Z3845SJDid5yeBMDomHs-31">
          <mxGeometry width="50" height="50" relative="1" as="geometry">
            <mxPoint x="570" y="120" as="sourcePoint" />
            <mxPoint x="620" y="70" as="targetPoint" />
          </mxGeometry>
        </mxCell>
        <mxCell id="Z3845SJDid5yeBMDomHs-34" value="" style="endArrow=none;html=1;entryX=0.916;entryY=0.004;entryDx=0;entryDy=0;entryPerimeter=0;" edge="1" parent="1" target="Z3845SJDid5yeBMDomHs-31">
          <mxGeometry width="50" height="50" relative="1" as="geometry">
            <mxPoint x="670" y="120" as="sourcePoint" />
            <mxPoint x="720" y="70" as="targetPoint" />
          </mxGeometry>
        </mxCell>
        <mxCell id="Z3845SJDid5yeBMDomHs-35" value="" style="endArrow=none;html=1;entryX=0.415;entryY=0.001;entryDx=0;entryDy=0;entryPerimeter=0;" edge="1" parent="1" target="Z3845SJDid5yeBMDomHs-31">
          <mxGeometry width="50" height="50" relative="1" as="geometry">
            <mxPoint x="610" y="120" as="sourcePoint" />
            <mxPoint x="660" y="70" as="targetPoint" />
          </mxGeometry>
        </mxCell>
        <mxCell id="Z3845SJDid5yeBMDomHs-36" value="" style="endArrow=none;html=1;" edge="1" parent="1">
          <mxGeometry width="50" height="50" relative="1" as="geometry">
            <mxPoint x="560" y="160" as="sourcePoint" />
            <mxPoint x="610" y="160" as="targetPoint" />
          </mxGeometry>
        </mxCell>
        <mxCell id="Z3845SJDid5yeBMDomHs-37" value="" style="endArrow=none;html=1;" edge="1" parent="1">
          <mxGeometry width="50" height="50" relative="1" as="geometry">
            <mxPoint x="570" y="200" as="sourcePoint" />
            <mxPoint x="570" y="160" as="targetPoint" />
          </mxGeometry>
        </mxCell>
        <mxCell id="Z3845SJDid5yeBMDomHs-38" value="" style="endArrow=none;html=1;" edge="1" parent="1">
          <mxGeometry width="50" height="50" relative="1" as="geometry">
            <mxPoint x="610" y="200" as="sourcePoint" />
            <mxPoint x="610" y="160" as="targetPoint" />
          </mxGeometry>
        </mxCell>
        <mxCell id="Z3845SJDid5yeBMDomHs-40" value="0" style="text;html=1;strokeColor=none;fillColor=none;align=center;verticalAlign=middle;whiteSpace=wrap;rounded=0;" vertex="1" parent="1">
          <mxGeometry x="90" y="170" width="40" height="20" as="geometry" />
        </mxCell>
        <mxCell id="Z3845SJDid5yeBMDomHs-41" value="0" style="text;html=1;strokeColor=none;fillColor=none;align=center;verticalAlign=middle;whiteSpace=wrap;rounded=0;" vertex="1" parent="1">
          <mxGeometry x="250" y="170" width="40" height="20" as="geometry" />
        </mxCell>
        <mxCell id="Z3845SJDid5yeBMDomHs-42" value="0" style="text;html=1;strokeColor=none;fillColor=none;align=center;verticalAlign=middle;whiteSpace=wrap;rounded=0;" vertex="1" parent="1">
          <mxGeometry x="410" y="170" width="40" height="20" as="geometry" />
        </mxCell>
        <mxCell id="Z3845SJDid5yeBMDomHs-45" value="0" style="text;html=1;strokeColor=none;fillColor=none;align=center;verticalAlign=middle;whiteSpace=wrap;rounded=0;" vertex="1" parent="1">
          <mxGeometry x="570" y="170" width="40" height="20" as="geometry" />
        </mxCell>
        <mxCell id="Z3845SJDid5yeBMDomHs-46" value="0" style="text;html=1;strokeColor=none;fillColor=none;align=center;verticalAlign=middle;whiteSpace=wrap;rounded=0;" vertex="1" parent="1">
          <mxGeometry x="90" y="90" width="40" height="20" as="geometry" />
        </mxCell>
        <mxCell id="Z3845SJDid5yeBMDomHs-47" value="0" style="text;html=1;strokeColor=none;fillColor=none;align=center;verticalAlign=middle;whiteSpace=wrap;rounded=0;" vertex="1" parent="1">
          <mxGeometry x="250" y="90" width="40" height="20" as="geometry" />
        </mxCell>
        <mxCell id="Z3845SJDid5yeBMDomHs-48" value="0" style="text;html=1;strokeColor=none;fillColor=none;align=center;verticalAlign=middle;whiteSpace=wrap;rounded=0;" vertex="1" parent="1">
          <mxGeometry x="410" y="90" width="40" height="20" as="geometry" />
        </mxCell>
        <mxCell id="Z3845SJDid5yeBMDomHs-49" value="0" style="text;html=1;strokeColor=none;fillColor=none;align=center;verticalAlign=middle;whiteSpace=wrap;rounded=0;" vertex="1" parent="1">
          <mxGeometry x="570" y="90" width="40" height="20" as="geometry" />
        </mxCell>
        <mxCell id="Z3845SJDid5yeBMDomHs-50" value="56" style="text;html=1;strokeColor=none;fillColor=none;align=center;verticalAlign=middle;whiteSpace=wrap;rounded=0;" vertex="1" parent="1">
          <mxGeometry x="140" y="90" width="40" height="20" as="geometry" />
        </mxCell>
        <mxCell id="Z3845SJDid5yeBMDomHs-51" value="117" style="text;html=1;strokeColor=none;fillColor=none;align=center;verticalAlign=middle;whiteSpace=wrap;rounded=0;" vertex="1" parent="1">
          <mxGeometry x="300" y="90" width="40" height="20" as="geometry" />
        </mxCell>
        <mxCell id="Z3845SJDid5yeBMDomHs-52" value="53" style="text;html=1;strokeColor=none;fillColor=none;align=center;verticalAlign=middle;whiteSpace=wrap;rounded=0;" vertex="1" parent="1">
          <mxGeometry x="460" y="90" width="40" height="20" as="geometry" />
        </mxCell>
        <mxCell id="Z3845SJDid5yeBMDomHs-53" value="122" style="text;html=1;strokeColor=none;fillColor=none;align=center;verticalAlign=middle;whiteSpace=wrap;rounded=0;" vertex="1" parent="1">
          <mxGeometry x="620" y="90" width="40" height="20" as="geometry" />
        </mxCell>
        <mxCell id="Z3845SJDid5yeBMDomHs-58" value="" style="endArrow=classic;html=1;" edge="1" parent="1">
          <mxGeometry width="50" height="50" relative="1" as="geometry">
            <mxPoint x="200" y="89.17" as="sourcePoint" />
            <mxPoint x="240" y="89.17" as="targetPoint" />
          </mxGeometry>
        </mxCell>
        <mxCell id="Z3845SJDid5yeBMDomHs-59" value="" style="endArrow=classic;html=1;" edge="1" parent="1">
          <mxGeometry width="50" height="50" relative="1" as="geometry">
            <mxPoint x="360" y="89.99999999999996" as="sourcePoint" />
            <mxPoint x="400" y="89.99999999999996" as="targetPoint" />
          </mxGeometry>
        </mxCell>
        <mxCell id="Z3845SJDid5yeBMDomHs-60" value="" style="endArrow=classic;html=1;" edge="1" parent="1">
          <mxGeometry width="50" height="50" relative="1" as="geometry">
            <mxPoint x="520" y="90" as="sourcePoint" />
            <mxPoint x="559.9999999999999" y="90" as="targetPoint" />
          </mxGeometry>
        </mxCell>
        <mxCell id="Z3845SJDid5yeBMDomHs-62" value="" style="endArrow=classic;html=1;" edge="1" parent="1">
          <mxGeometry width="50" height="50" relative="1" as="geometry">
            <mxPoint x="559.9999999999999" y="99.58" as="sourcePoint" />
            <mxPoint x="520" y="99.58" as="targetPoint" />
          </mxGeometry>
        </mxCell>
        <mxCell id="Z3845SJDid5yeBMDomHs-63" value="" style="endArrow=classic;html=1;" edge="1" parent="1">
          <mxGeometry width="50" height="50" relative="1" as="geometry">
            <mxPoint x="399.9999999999999" y="99.58000000000004" as="sourcePoint" />
            <mxPoint x="359.9999999999999" y="99.58000000000004" as="targetPoint" />
          </mxGeometry>
        </mxCell>
        <mxCell id="Z3845SJDid5yeBMDomHs-64" value="" style="endArrow=classic;html=1;" edge="1" parent="1">
          <mxGeometry width="50" height="50" relative="1" as="geometry">
            <mxPoint x="239.9999999999999" y="99.58000000000004" as="sourcePoint" />
            <mxPoint x="199.9999999999999" y="99.58000000000004" as="targetPoint" />
          </mxGeometry>
        </mxCell>
        <mxCell id="Z3845SJDid5yeBMDomHs-65" value="" style="endArrow=classic;html=1;entryX=1.019;entryY=0.162;entryDx=0;entryDy=0;entryPerimeter=0;" edge="1" parent="1" target="Z3845SJDid5yeBMDomHs-31">
          <mxGeometry width="50" height="50" relative="1" as="geometry">
            <mxPoint x="80" y="100" as="sourcePoint" />
            <mxPoint x="740" y="120" as="targetPoint" />
            <Array as="points">
              <mxPoint x="60" y="100" />
              <mxPoint x="60" y="60" />
              <mxPoint x="720" y="60" />
              <mxPoint x="720" y="99" />
            </Array>
          </mxGeometry>
        </mxCell>
        <mxCell id="Z3845SJDid5yeBMDomHs-66" value="" style="endArrow=classic;html=1;entryX=-0.014;entryY=0.101;entryDx=0;entryDy=0;entryPerimeter=0;" edge="1" parent="1" target="Z3845SJDid5yeBMDomHs-1">
          <mxGeometry width="50" height="50" relative="1" as="geometry">
            <mxPoint x="680" y="90" as="sourcePoint" />
            <mxPoint x="40" y="90" as="targetPoint" />
            <Array as="points">
              <mxPoint x="700" y="90" />
              <mxPoint x="700" y="40" />
              <mxPoint x="40" y="40" />
              <mxPoint x="40" y="92" />
            </Array>
          </mxGeometry>
        </mxCell>
        <mxCell id="Z3845SJDid5yeBMDomHs-67" value="" style="endArrow=classic;html=1;" edge="1" parent="1">
          <mxGeometry width="50" height="50" relative="1" as="geometry">
            <mxPoint x="40" y="200" as="sourcePoint" />
            <mxPoint x="80" y="95" as="targetPoint" />
            <Array as="points">
              <mxPoint x="40" y="95" />
            </Array>
          </mxGeometry>
        </mxCell>
        <mxCell id="Z3845SJDid5yeBMDomHs-69" value="av" style="text;html=1;strokeColor=none;fillColor=none;align=center;verticalAlign=middle;whiteSpace=wrap;rounded=0;" vertex="1" parent="1">
          <mxGeometry x="20" y="200" width="40" height="20" as="geometry" />
        </mxCell>
        <mxCell id="Z3845SJDid5yeBMDomHs-70" value="802" style="text;html=1;strokeColor=none;fillColor=none;align=center;verticalAlign=middle;whiteSpace=wrap;rounded=0;fontColor=#FF1100;" vertex="1" parent="1">
          <mxGeometry x="90" y="60" width="40" height="20" as="geometry" />
        </mxCell>
        <mxCell id="Z3845SJDid5yeBMDomHs-71" value="213" style="text;html=1;strokeColor=none;fillColor=none;align=center;verticalAlign=middle;whiteSpace=wrap;rounded=0;fontColor=#FF1100;" vertex="1" parent="1">
          <mxGeometry x="250" y="60" width="40" height="20" as="geometry" />
        </mxCell>
        <mxCell id="Z3845SJDid5yeBMDomHs-72" value="462" style="text;html=1;strokeColor=none;fillColor=none;align=center;verticalAlign=middle;whiteSpace=wrap;rounded=0;fontColor=#FF1100;" vertex="1" parent="1">
          <mxGeometry x="410" y="60" width="40" height="20" as="geometry" />
        </mxCell>
        <mxCell id="Z3845SJDid5yeBMDomHs-73" value="604" style="text;html=1;strokeColor=none;fillColor=none;align=center;verticalAlign=middle;whiteSpace=wrap;rounded=0;fontColor=#FF1100;" vertex="1" parent="1">
          <mxGeometry x="570" y="60" width="40" height="20" as="geometry" />
        </mxCell>
        <mxCell id="Z3845SJDid5yeBMDomHs-74" style="edgeStyle=orthogonalEdgeStyle;rounded=0;orthogonalLoop=1;jettySize=auto;html=1;exitX=0;exitY=0.75;exitDx=0;exitDy=0;" edge="1" parent="1" source="Z3845SJDid5yeBMDomHs-75">
          <mxGeometry relative="1" as="geometry">
            <mxPoint x="79.66666666666674" y="310" as="targetPoint" />
          </mxGeometry>
        </mxCell>
        <mxCell id="Z3845SJDid5yeBMDomHs-75" value="" style="rounded=0;whiteSpace=wrap;html=1;" vertex="1" parent="1">
          <mxGeometry x="80" y="280" width="120" height="120" as="geometry" />
        </mxCell>
        <mxCell id="Z3845SJDid5yeBMDomHs-76" value="" style="endArrow=none;html=1;entryX=1;entryY=0.333;entryDx=0;entryDy=0;entryPerimeter=0;" edge="1" parent="1" target="Z3845SJDid5yeBMDomHs-75">
          <mxGeometry width="50" height="50" relative="1" as="geometry">
            <mxPoint x="79.99999999999989" y="320" as="sourcePoint" />
            <mxPoint x="130" y="270" as="targetPoint" />
          </mxGeometry>
        </mxCell>
        <mxCell id="Z3845SJDid5yeBMDomHs-77" value="" style="endArrow=none;html=1;entryX=0.082;entryY=0.001;entryDx=0;entryDy=0;entryPerimeter=0;" edge="1" parent="1" target="Z3845SJDid5yeBMDomHs-75">
          <mxGeometry width="50" height="50" relative="1" as="geometry">
            <mxPoint x="89.99999999999989" y="320" as="sourcePoint" />
            <mxPoint x="140" y="270" as="targetPoint" />
          </mxGeometry>
        </mxCell>
        <mxCell id="Z3845SJDid5yeBMDomHs-78" value="" style="endArrow=none;html=1;entryX=0.916;entryY=0.004;entryDx=0;entryDy=0;entryPerimeter=0;" edge="1" parent="1" target="Z3845SJDid5yeBMDomHs-75">
          <mxGeometry width="50" height="50" relative="1" as="geometry">
            <mxPoint x="189.9999999999999" y="320" as="sourcePoint" />
            <mxPoint x="240" y="270" as="targetPoint" />
          </mxGeometry>
        </mxCell>
        <mxCell id="Z3845SJDid5yeBMDomHs-79" value="" style="endArrow=none;html=1;entryX=0.415;entryY=0.001;entryDx=0;entryDy=0;entryPerimeter=0;" edge="1" parent="1" target="Z3845SJDid5yeBMDomHs-75">
          <mxGeometry width="50" height="50" relative="1" as="geometry">
            <mxPoint x="129.9999999999999" y="320" as="sourcePoint" />
            <mxPoint x="180" y="270" as="targetPoint" />
          </mxGeometry>
        </mxCell>
        <mxCell id="Z3845SJDid5yeBMDomHs-80" value="" style="endArrow=none;html=1;" edge="1" parent="1">
          <mxGeometry width="50" height="50" relative="1" as="geometry">
            <mxPoint x="79.99999999999989" y="360" as="sourcePoint" />
            <mxPoint x="129.9999999999999" y="360" as="targetPoint" />
          </mxGeometry>
        </mxCell>
        <mxCell id="Z3845SJDid5yeBMDomHs-81" value="" style="endArrow=none;html=1;" edge="1" parent="1">
          <mxGeometry width="50" height="50" relative="1" as="geometry">
            <mxPoint x="89.99999999999989" y="400" as="sourcePoint" />
            <mxPoint x="89.99999999999989" y="360" as="targetPoint" />
          </mxGeometry>
        </mxCell>
        <mxCell id="Z3845SJDid5yeBMDomHs-82" value="" style="endArrow=none;html=1;" edge="1" parent="1">
          <mxGeometry width="50" height="50" relative="1" as="geometry">
            <mxPoint x="129.9999999999999" y="400" as="sourcePoint" />
            <mxPoint x="129.9999999999999" y="360" as="targetPoint" />
          </mxGeometry>
        </mxCell>
        <mxCell id="Z3845SJDid5yeBMDomHs-83" style="edgeStyle=orthogonalEdgeStyle;rounded=0;orthogonalLoop=1;jettySize=auto;html=1;exitX=0;exitY=0.75;exitDx=0;exitDy=0;" edge="1" parent="1" source="Z3845SJDid5yeBMDomHs-84">
          <mxGeometry relative="1" as="geometry">
            <mxPoint x="239.66666666666674" y="310" as="targetPoint" />
          </mxGeometry>
        </mxCell>
        <mxCell id="Z3845SJDid5yeBMDomHs-84" value="" style="rounded=0;whiteSpace=wrap;html=1;" vertex="1" parent="1">
          <mxGeometry x="240" y="280" width="120" height="120" as="geometry" />
        </mxCell>
        <mxCell id="Z3845SJDid5yeBMDomHs-85" value="" style="endArrow=none;html=1;entryX=1;entryY=0.333;entryDx=0;entryDy=0;entryPerimeter=0;" edge="1" parent="1" target="Z3845SJDid5yeBMDomHs-84">
          <mxGeometry width="50" height="50" relative="1" as="geometry">
            <mxPoint x="239.9999999999999" y="320" as="sourcePoint" />
            <mxPoint x="290" y="270" as="targetPoint" />
          </mxGeometry>
        </mxCell>
        <mxCell id="Z3845SJDid5yeBMDomHs-86" value="" style="endArrow=none;html=1;entryX=0.082;entryY=0.001;entryDx=0;entryDy=0;entryPerimeter=0;" edge="1" parent="1" target="Z3845SJDid5yeBMDomHs-84">
          <mxGeometry width="50" height="50" relative="1" as="geometry">
            <mxPoint x="250" y="320" as="sourcePoint" />
            <mxPoint x="300" y="270" as="targetPoint" />
          </mxGeometry>
        </mxCell>
        <mxCell id="Z3845SJDid5yeBMDomHs-87" value="" style="endArrow=none;html=1;entryX=0.916;entryY=0.004;entryDx=0;entryDy=0;entryPerimeter=0;" edge="1" parent="1" target="Z3845SJDid5yeBMDomHs-84">
          <mxGeometry width="50" height="50" relative="1" as="geometry">
            <mxPoint x="350" y="320" as="sourcePoint" />
            <mxPoint x="400" y="270" as="targetPoint" />
          </mxGeometry>
        </mxCell>
        <mxCell id="Z3845SJDid5yeBMDomHs-88" value="" style="endArrow=none;html=1;entryX=0.415;entryY=0.001;entryDx=0;entryDy=0;entryPerimeter=0;" edge="1" parent="1" target="Z3845SJDid5yeBMDomHs-84">
          <mxGeometry width="50" height="50" relative="1" as="geometry">
            <mxPoint x="290" y="320" as="sourcePoint" />
            <mxPoint x="340" y="270" as="targetPoint" />
          </mxGeometry>
        </mxCell>
        <mxCell id="Z3845SJDid5yeBMDomHs-89" value="" style="endArrow=none;html=1;" edge="1" parent="1">
          <mxGeometry width="50" height="50" relative="1" as="geometry">
            <mxPoint x="239.9999999999999" y="360" as="sourcePoint" />
            <mxPoint x="290" y="360" as="targetPoint" />
          </mxGeometry>
        </mxCell>
        <mxCell id="Z3845SJDid5yeBMDomHs-90" value="" style="endArrow=none;html=1;" edge="1" parent="1">
          <mxGeometry width="50" height="50" relative="1" as="geometry">
            <mxPoint x="250" y="400" as="sourcePoint" />
            <mxPoint x="250" y="360" as="targetPoint" />
          </mxGeometry>
        </mxCell>
        <mxCell id="Z3845SJDid5yeBMDomHs-91" value="" style="endArrow=none;html=1;" edge="1" parent="1">
          <mxGeometry width="50" height="50" relative="1" as="geometry">
            <mxPoint x="290" y="400" as="sourcePoint" />
            <mxPoint x="290" y="360" as="targetPoint" />
          </mxGeometry>
        </mxCell>
        <mxCell id="Z3845SJDid5yeBMDomHs-92" style="edgeStyle=orthogonalEdgeStyle;rounded=0;orthogonalLoop=1;jettySize=auto;html=1;exitX=0;exitY=0.75;exitDx=0;exitDy=0;" edge="1" parent="1" source="Z3845SJDid5yeBMDomHs-93">
          <mxGeometry relative="1" as="geometry">
            <mxPoint x="399.66666666666674" y="310" as="targetPoint" />
          </mxGeometry>
        </mxCell>
        <mxCell id="Z3845SJDid5yeBMDomHs-93" value="" style="rounded=0;whiteSpace=wrap;html=1;" vertex="1" parent="1">
          <mxGeometry x="400" y="280" width="120" height="120" as="geometry" />
        </mxCell>
        <mxCell id="Z3845SJDid5yeBMDomHs-94" value="" style="endArrow=none;html=1;entryX=1;entryY=0.333;entryDx=0;entryDy=0;entryPerimeter=0;" edge="1" parent="1" target="Z3845SJDid5yeBMDomHs-93">
          <mxGeometry width="50" height="50" relative="1" as="geometry">
            <mxPoint x="400" y="320" as="sourcePoint" />
            <mxPoint x="450" y="270" as="targetPoint" />
          </mxGeometry>
        </mxCell>
        <mxCell id="Z3845SJDid5yeBMDomHs-95" value="" style="endArrow=none;html=1;entryX=0.082;entryY=0.001;entryDx=0;entryDy=0;entryPerimeter=0;" edge="1" parent="1" target="Z3845SJDid5yeBMDomHs-93">
          <mxGeometry width="50" height="50" relative="1" as="geometry">
            <mxPoint x="410" y="320" as="sourcePoint" />
            <mxPoint x="460" y="270" as="targetPoint" />
          </mxGeometry>
        </mxCell>
        <mxCell id="Z3845SJDid5yeBMDomHs-96" value="" style="endArrow=none;html=1;entryX=0.916;entryY=0.004;entryDx=0;entryDy=0;entryPerimeter=0;" edge="1" parent="1" target="Z3845SJDid5yeBMDomHs-93">
          <mxGeometry width="50" height="50" relative="1" as="geometry">
            <mxPoint x="510" y="320" as="sourcePoint" />
            <mxPoint x="560" y="270" as="targetPoint" />
          </mxGeometry>
        </mxCell>
        <mxCell id="Z3845SJDid5yeBMDomHs-97" value="" style="endArrow=none;html=1;entryX=0.415;entryY=0.001;entryDx=0;entryDy=0;entryPerimeter=0;" edge="1" parent="1" target="Z3845SJDid5yeBMDomHs-93">
          <mxGeometry width="50" height="50" relative="1" as="geometry">
            <mxPoint x="450" y="320" as="sourcePoint" />
            <mxPoint x="500" y="270" as="targetPoint" />
          </mxGeometry>
        </mxCell>
        <mxCell id="Z3845SJDid5yeBMDomHs-98" value="" style="endArrow=none;html=1;" edge="1" parent="1">
          <mxGeometry width="50" height="50" relative="1" as="geometry">
            <mxPoint x="400" y="360" as="sourcePoint" />
            <mxPoint x="450" y="360" as="targetPoint" />
          </mxGeometry>
        </mxCell>
        <mxCell id="Z3845SJDid5yeBMDomHs-99" value="" style="endArrow=none;html=1;" edge="1" parent="1">
          <mxGeometry width="50" height="50" relative="1" as="geometry">
            <mxPoint x="410" y="400" as="sourcePoint" />
            <mxPoint x="410" y="360" as="targetPoint" />
          </mxGeometry>
        </mxCell>
        <mxCell id="Z3845SJDid5yeBMDomHs-100" value="" style="endArrow=none;html=1;" edge="1" parent="1">
          <mxGeometry width="50" height="50" relative="1" as="geometry">
            <mxPoint x="450" y="400" as="sourcePoint" />
            <mxPoint x="450" y="360" as="targetPoint" />
          </mxGeometry>
        </mxCell>
        <mxCell id="Z3845SJDid5yeBMDomHs-101" style="edgeStyle=orthogonalEdgeStyle;rounded=0;orthogonalLoop=1;jettySize=auto;html=1;exitX=0;exitY=0.75;exitDx=0;exitDy=0;" edge="1" parent="1" source="Z3845SJDid5yeBMDomHs-102">
          <mxGeometry relative="1" as="geometry">
            <mxPoint x="559.6666666666667" y="310" as="targetPoint" />
          </mxGeometry>
        </mxCell>
        <mxCell id="Z3845SJDid5yeBMDomHs-102" value="" style="rounded=0;whiteSpace=wrap;html=1;" vertex="1" parent="1">
          <mxGeometry x="560" y="280" width="120" height="120" as="geometry" />
        </mxCell>
        <mxCell id="Z3845SJDid5yeBMDomHs-103" value="" style="endArrow=none;html=1;entryX=1;entryY=0.333;entryDx=0;entryDy=0;entryPerimeter=0;" edge="1" parent="1" target="Z3845SJDid5yeBMDomHs-102">
          <mxGeometry width="50" height="50" relative="1" as="geometry">
            <mxPoint x="560" y="320" as="sourcePoint" />
            <mxPoint x="610" y="270" as="targetPoint" />
          </mxGeometry>
        </mxCell>
        <mxCell id="Z3845SJDid5yeBMDomHs-104" value="" style="endArrow=none;html=1;entryX=0.082;entryY=0.001;entryDx=0;entryDy=0;entryPerimeter=0;" edge="1" parent="1" target="Z3845SJDid5yeBMDomHs-102">
          <mxGeometry width="50" height="50" relative="1" as="geometry">
            <mxPoint x="570" y="320" as="sourcePoint" />
            <mxPoint x="620" y="270" as="targetPoint" />
          </mxGeometry>
        </mxCell>
        <mxCell id="Z3845SJDid5yeBMDomHs-105" value="" style="endArrow=none;html=1;entryX=0.916;entryY=0.004;entryDx=0;entryDy=0;entryPerimeter=0;" edge="1" parent="1" target="Z3845SJDid5yeBMDomHs-102">
          <mxGeometry width="50" height="50" relative="1" as="geometry">
            <mxPoint x="670" y="320" as="sourcePoint" />
            <mxPoint x="720" y="270" as="targetPoint" />
          </mxGeometry>
        </mxCell>
        <mxCell id="Z3845SJDid5yeBMDomHs-106" value="" style="endArrow=none;html=1;entryX=0.415;entryY=0.001;entryDx=0;entryDy=0;entryPerimeter=0;" edge="1" parent="1" target="Z3845SJDid5yeBMDomHs-102">
          <mxGeometry width="50" height="50" relative="1" as="geometry">
            <mxPoint x="610" y="320" as="sourcePoint" />
            <mxPoint x="660" y="270" as="targetPoint" />
          </mxGeometry>
        </mxCell>
        <mxCell id="Z3845SJDid5yeBMDomHs-107" value="" style="endArrow=none;html=1;" edge="1" parent="1">
          <mxGeometry width="50" height="50" relative="1" as="geometry">
            <mxPoint x="560" y="360" as="sourcePoint" />
            <mxPoint x="610" y="360" as="targetPoint" />
          </mxGeometry>
        </mxCell>
        <mxCell id="Z3845SJDid5yeBMDomHs-108" value="" style="endArrow=none;html=1;" edge="1" parent="1">
          <mxGeometry width="50" height="50" relative="1" as="geometry">
            <mxPoint x="570" y="400" as="sourcePoint" />
            <mxPoint x="570" y="360" as="targetPoint" />
          </mxGeometry>
        </mxCell>
        <mxCell id="Z3845SJDid5yeBMDomHs-109" value="" style="endArrow=none;html=1;" edge="1" parent="1">
          <mxGeometry width="50" height="50" relative="1" as="geometry">
            <mxPoint x="610" y="400" as="sourcePoint" />
            <mxPoint x="610" y="360" as="targetPoint" />
          </mxGeometry>
        </mxCell>
        <mxCell id="Z3845SJDid5yeBMDomHs-110" value="0" style="text;html=1;strokeColor=none;fillColor=none;align=center;verticalAlign=middle;whiteSpace=wrap;rounded=0;" vertex="1" parent="1">
          <mxGeometry x="90" y="370" width="40" height="20" as="geometry" />
        </mxCell>
        <mxCell id="Z3845SJDid5yeBMDomHs-111" value="0" style="text;html=1;strokeColor=none;fillColor=none;align=center;verticalAlign=middle;whiteSpace=wrap;rounded=0;" vertex="1" parent="1">
          <mxGeometry x="250" y="370" width="40" height="20" as="geometry" />
        </mxCell>
        <mxCell id="Z3845SJDid5yeBMDomHs-112" value="0" style="text;html=1;strokeColor=none;fillColor=none;align=center;verticalAlign=middle;whiteSpace=wrap;rounded=0;" vertex="1" parent="1">
          <mxGeometry x="410" y="370" width="40" height="20" as="geometry" />
        </mxCell>
        <mxCell id="Z3845SJDid5yeBMDomHs-113" value="0" style="text;html=1;strokeColor=none;fillColor=none;align=center;verticalAlign=middle;whiteSpace=wrap;rounded=0;" vertex="1" parent="1">
          <mxGeometry x="570" y="370" width="40" height="20" as="geometry" />
        </mxCell>
        <mxCell id="Z3845SJDid5yeBMDomHs-114" value="0" style="text;html=1;strokeColor=none;fillColor=none;align=center;verticalAlign=middle;whiteSpace=wrap;rounded=0;" vertex="1" parent="1">
          <mxGeometry x="90" y="290" width="40" height="20" as="geometry" />
        </mxCell>
        <mxCell id="Z3845SJDid5yeBMDomHs-115" value="0" style="text;html=1;strokeColor=none;fillColor=none;align=center;verticalAlign=middle;whiteSpace=wrap;rounded=0;" vertex="1" parent="1">
          <mxGeometry x="250" y="290" width="40" height="20" as="geometry" />
        </mxCell>
        <mxCell id="Z3845SJDid5yeBMDomHs-116" value="0" style="text;html=1;strokeColor=none;fillColor=none;align=center;verticalAlign=middle;whiteSpace=wrap;rounded=0;" vertex="1" parent="1">
          <mxGeometry x="410" y="290" width="40" height="20" as="geometry" />
        </mxCell>
        <mxCell id="Z3845SJDid5yeBMDomHs-117" value="0" style="text;html=1;strokeColor=none;fillColor=none;align=center;verticalAlign=middle;whiteSpace=wrap;rounded=0;" vertex="1" parent="1">
          <mxGeometry x="570" y="290" width="40" height="20" as="geometry" />
        </mxCell>
        <mxCell id="Z3845SJDid5yeBMDomHs-118" value="56" style="text;html=1;strokeColor=none;fillColor=none;align=center;verticalAlign=middle;whiteSpace=wrap;rounded=0;" vertex="1" parent="1">
          <mxGeometry x="140" y="290" width="40" height="20" as="geometry" />
        </mxCell>
        <mxCell id="Z3845SJDid5yeBMDomHs-119" value="117" style="text;html=1;strokeColor=none;fillColor=none;align=center;verticalAlign=middle;whiteSpace=wrap;rounded=0;" vertex="1" parent="1">
          <mxGeometry x="300" y="290" width="40" height="20" as="geometry" />
        </mxCell>
        <mxCell id="Z3845SJDid5yeBMDomHs-120" value="53" style="text;html=1;strokeColor=none;fillColor=none;align=center;verticalAlign=middle;whiteSpace=wrap;rounded=0;" vertex="1" parent="1">
          <mxGeometry x="460" y="290" width="40" height="20" as="geometry" />
        </mxCell>
        <mxCell id="Z3845SJDid5yeBMDomHs-121" value="167" style="text;html=1;strokeColor=none;fillColor=none;align=center;verticalAlign=middle;whiteSpace=wrap;rounded=0;" vertex="1" parent="1">
          <mxGeometry x="620" y="290" width="40" height="20" as="geometry" />
        </mxCell>
        <mxCell id="Z3845SJDid5yeBMDomHs-122" value="" style="endArrow=classic;html=1;" edge="1" parent="1">
          <mxGeometry width="50" height="50" relative="1" as="geometry">
            <mxPoint x="199.9999999999999" y="289.16999999999996" as="sourcePoint" />
            <mxPoint x="239.9999999999999" y="289.16999999999996" as="targetPoint" />
          </mxGeometry>
        </mxCell>
        <mxCell id="Z3845SJDid5yeBMDomHs-123" value="" style="endArrow=classic;html=1;" edge="1" parent="1">
          <mxGeometry width="50" height="50" relative="1" as="geometry">
            <mxPoint x="360" y="290" as="sourcePoint" />
            <mxPoint x="400" y="290" as="targetPoint" />
          </mxGeometry>
        </mxCell>
        <mxCell id="Z3845SJDid5yeBMDomHs-124" value="" style="endArrow=classic;html=1;" edge="1" parent="1">
          <mxGeometry width="50" height="50" relative="1" as="geometry">
            <mxPoint x="520" y="290" as="sourcePoint" />
            <mxPoint x="560" y="290" as="targetPoint" />
          </mxGeometry>
        </mxCell>
        <mxCell id="Z3845SJDid5yeBMDomHs-125" value="" style="endArrow=classic;html=1;" edge="1" parent="1">
          <mxGeometry width="50" height="50" relative="1" as="geometry">
            <mxPoint x="560" y="299.58000000000004" as="sourcePoint" />
            <mxPoint x="520" y="299.58000000000004" as="targetPoint" />
          </mxGeometry>
        </mxCell>
        <mxCell id="Z3845SJDid5yeBMDomHs-126" value="" style="endArrow=classic;html=1;" edge="1" parent="1">
          <mxGeometry width="50" height="50" relative="1" as="geometry">
            <mxPoint x="400" y="299.58000000000004" as="sourcePoint" />
            <mxPoint x="360" y="299.58000000000004" as="targetPoint" />
          </mxGeometry>
        </mxCell>
        <mxCell id="Z3845SJDid5yeBMDomHs-127" value="" style="endArrow=classic;html=1;" edge="1" parent="1">
          <mxGeometry width="50" height="50" relative="1" as="geometry">
            <mxPoint x="239.9999999999999" y="299.58000000000004" as="sourcePoint" />
            <mxPoint x="199.9999999999999" y="299.58000000000004" as="targetPoint" />
          </mxGeometry>
        </mxCell>
        <mxCell id="Z3845SJDid5yeBMDomHs-128" value="" style="endArrow=classic;html=1;entryX=1.019;entryY=0.162;entryDx=0;entryDy=0;entryPerimeter=0;" edge="1" parent="1" target="Z3845SJDid5yeBMDomHs-102">
          <mxGeometry width="50" height="50" relative="1" as="geometry">
            <mxPoint x="79.99999999999989" y="300" as="sourcePoint" />
            <mxPoint x="740" y="320" as="targetPoint" />
            <Array as="points">
              <mxPoint x="60" y="300" />
              <mxPoint x="60" y="260" />
              <mxPoint x="720" y="260" />
              <mxPoint x="720" y="299" />
            </Array>
          </mxGeometry>
        </mxCell>
        <mxCell id="Z3845SJDid5yeBMDomHs-129" value="" style="endArrow=classic;html=1;entryX=-0.014;entryY=0.101;entryDx=0;entryDy=0;entryPerimeter=0;" edge="1" parent="1" target="Z3845SJDid5yeBMDomHs-75">
          <mxGeometry width="50" height="50" relative="1" as="geometry">
            <mxPoint x="680" y="290" as="sourcePoint" />
            <mxPoint x="40" y="290" as="targetPoint" />
            <Array as="points">
              <mxPoint x="700" y="290" />
              <mxPoint x="700" y="240" />
              <mxPoint x="40" y="240" />
              <mxPoint x="40" y="292" />
            </Array>
          </mxGeometry>
        </mxCell>
        <mxCell id="Z3845SJDid5yeBMDomHs-130" value="" style="endArrow=classic;html=1;" edge="1" parent="1">
          <mxGeometry width="50" height="50" relative="1" as="geometry">
            <mxPoint x="39.999999999999886" y="400" as="sourcePoint" />
            <mxPoint x="79.99999999999989" y="295" as="targetPoint" />
            <Array as="points">
              <mxPoint x="40" y="295" />
            </Array>
          </mxGeometry>
        </mxCell>
        <mxCell id="Z3845SJDid5yeBMDomHs-131" value="av" style="text;html=1;strokeColor=none;fillColor=none;align=center;verticalAlign=middle;whiteSpace=wrap;rounded=0;" vertex="1" parent="1">
          <mxGeometry x="20" y="400" width="40" height="20" as="geometry" />
        </mxCell>
        <mxCell id="Z3845SJDid5yeBMDomHs-132" value="802" style="text;html=1;strokeColor=none;fillColor=none;align=center;verticalAlign=middle;whiteSpace=wrap;rounded=0;fontColor=#FF1100;" vertex="1" parent="1">
          <mxGeometry x="90" y="260" width="40" height="20" as="geometry" />
        </mxCell>
        <mxCell id="Z3845SJDid5yeBMDomHs-133" value="213" style="text;html=1;strokeColor=none;fillColor=none;align=center;verticalAlign=middle;whiteSpace=wrap;rounded=0;fontColor=#FF1100;" vertex="1" parent="1">
          <mxGeometry x="250" y="260" width="40" height="20" as="geometry" />
        </mxCell>
        <mxCell id="Z3845SJDid5yeBMDomHs-134" value="462" style="text;html=1;strokeColor=none;fillColor=none;align=center;verticalAlign=middle;whiteSpace=wrap;rounded=0;fontColor=#FF1100;" vertex="1" parent="1">
          <mxGeometry x="410" y="260" width="40" height="20" as="geometry" />
        </mxCell>
        <mxCell id="Z3845SJDid5yeBMDomHs-135" value="559" style="text;html=1;strokeColor=none;fillColor=none;align=center;verticalAlign=middle;whiteSpace=wrap;rounded=0;fontColor=#FF1100;" vertex="1" parent="1">
          <mxGeometry x="570" y="260" width="40" height="20" as="geometry" />
        </mxCell>
        <mxCell id="Z3845SJDid5yeBMDomHs-136" value="24." style="text;html=1;strokeColor=none;fillColor=none;align=center;verticalAlign=middle;whiteSpace=wrap;rounded=0;fontColor=#FF1100;" vertex="1" parent="1">
          <mxGeometry x="40" y="20" width="40" height="20" as="geometry" />
        </mxCell>
        <mxCell id="Z3845SJDid5yeBMDomHs-137" value="&lt;font color=&quot;#000000&quot;&gt;( 1 )&lt;/font&gt;" style="text;html=1;strokeColor=none;fillColor=none;align=center;verticalAlign=middle;whiteSpace=wrap;rounded=0;fontColor=#FF1100;" vertex="1" parent="1">
          <mxGeometry x="40" y="220" width="40" height="20" as="geometry" />
        </mxCell>
        <mxCell id="Z3845SJDid5yeBMDomHs-153" style="edgeStyle=orthogonalEdgeStyle;rounded=0;orthogonalLoop=1;jettySize=auto;html=1;exitX=0;exitY=0.75;exitDx=0;exitDy=0;" edge="1" parent="1" source="Z3845SJDid5yeBMDomHs-154">
          <mxGeometry relative="1" as="geometry">
            <mxPoint x="79.66666666666674" y="510" as="targetPoint" />
          </mxGeometry>
        </mxCell>
        <mxCell id="Z3845SJDid5yeBMDomHs-154" value="" style="rounded=0;whiteSpace=wrap;html=1;" vertex="1" parent="1">
          <mxGeometry x="80" y="480" width="120" height="120" as="geometry" />
        </mxCell>
        <mxCell id="Z3845SJDid5yeBMDomHs-155" value="" style="endArrow=none;html=1;entryX=1;entryY=0.333;entryDx=0;entryDy=0;entryPerimeter=0;" edge="1" parent="1" target="Z3845SJDid5yeBMDomHs-154">
          <mxGeometry width="50" height="50" relative="1" as="geometry">
            <mxPoint x="79.99999999999989" y="520" as="sourcePoint" />
            <mxPoint x="130" y="470" as="targetPoint" />
          </mxGeometry>
        </mxCell>
        <mxCell id="Z3845SJDid5yeBMDomHs-156" value="" style="endArrow=none;html=1;entryX=0.082;entryY=0.001;entryDx=0;entryDy=0;entryPerimeter=0;" edge="1" parent="1" target="Z3845SJDid5yeBMDomHs-154">
          <mxGeometry width="50" height="50" relative="1" as="geometry">
            <mxPoint x="89.99999999999989" y="520" as="sourcePoint" />
            <mxPoint x="140" y="470" as="targetPoint" />
          </mxGeometry>
        </mxCell>
        <mxCell id="Z3845SJDid5yeBMDomHs-157" value="" style="endArrow=none;html=1;entryX=0.916;entryY=0.004;entryDx=0;entryDy=0;entryPerimeter=0;" edge="1" parent="1" target="Z3845SJDid5yeBMDomHs-154">
          <mxGeometry width="50" height="50" relative="1" as="geometry">
            <mxPoint x="189.9999999999999" y="520" as="sourcePoint" />
            <mxPoint x="240" y="470" as="targetPoint" />
          </mxGeometry>
        </mxCell>
        <mxCell id="Z3845SJDid5yeBMDomHs-158" value="" style="endArrow=none;html=1;entryX=0.415;entryY=0.001;entryDx=0;entryDy=0;entryPerimeter=0;" edge="1" parent="1" target="Z3845SJDid5yeBMDomHs-154">
          <mxGeometry width="50" height="50" relative="1" as="geometry">
            <mxPoint x="129.9999999999999" y="520" as="sourcePoint" />
            <mxPoint x="180" y="470" as="targetPoint" />
          </mxGeometry>
        </mxCell>
        <mxCell id="Z3845SJDid5yeBMDomHs-159" value="" style="endArrow=none;html=1;" edge="1" parent="1">
          <mxGeometry width="50" height="50" relative="1" as="geometry">
            <mxPoint x="79.99999999999989" y="560" as="sourcePoint" />
            <mxPoint x="129.9999999999999" y="560" as="targetPoint" />
          </mxGeometry>
        </mxCell>
        <mxCell id="Z3845SJDid5yeBMDomHs-160" value="" style="endArrow=none;html=1;" edge="1" parent="1">
          <mxGeometry width="50" height="50" relative="1" as="geometry">
            <mxPoint x="89.99999999999989" y="600" as="sourcePoint" />
            <mxPoint x="89.99999999999989" y="560" as="targetPoint" />
          </mxGeometry>
        </mxCell>
        <mxCell id="Z3845SJDid5yeBMDomHs-161" value="" style="endArrow=none;html=1;" edge="1" parent="1">
          <mxGeometry width="50" height="50" relative="1" as="geometry">
            <mxPoint x="129.9999999999999" y="600" as="sourcePoint" />
            <mxPoint x="129.9999999999999" y="560" as="targetPoint" />
          </mxGeometry>
        </mxCell>
        <mxCell id="Z3845SJDid5yeBMDomHs-163" value="" style="rounded=0;whiteSpace=wrap;html=1;" vertex="1" parent="1">
          <mxGeometry x="580" y="480" width="120" height="120" as="geometry" />
        </mxCell>
        <mxCell id="Z3845SJDid5yeBMDomHs-164" value="" style="endArrow=none;html=1;entryX=1;entryY=0.333;entryDx=0;entryDy=0;entryPerimeter=0;" edge="1" parent="1" target="Z3845SJDid5yeBMDomHs-163">
          <mxGeometry width="50" height="50" relative="1" as="geometry">
            <mxPoint x="579.9999999999999" y="520" as="sourcePoint" />
            <mxPoint x="630" y="470" as="targetPoint" />
          </mxGeometry>
        </mxCell>
        <mxCell id="Z3845SJDid5yeBMDomHs-165" value="" style="endArrow=none;html=1;entryX=0.082;entryY=0.001;entryDx=0;entryDy=0;entryPerimeter=0;" edge="1" parent="1" target="Z3845SJDid5yeBMDomHs-163">
          <mxGeometry width="50" height="50" relative="1" as="geometry">
            <mxPoint x="590" y="520" as="sourcePoint" />
            <mxPoint x="640" y="470" as="targetPoint" />
          </mxGeometry>
        </mxCell>
        <mxCell id="Z3845SJDid5yeBMDomHs-166" value="" style="endArrow=none;html=1;entryX=0.916;entryY=0.004;entryDx=0;entryDy=0;entryPerimeter=0;" edge="1" parent="1" target="Z3845SJDid5yeBMDomHs-163">
          <mxGeometry width="50" height="50" relative="1" as="geometry">
            <mxPoint x="690" y="520" as="sourcePoint" />
            <mxPoint x="740" y="470" as="targetPoint" />
          </mxGeometry>
        </mxCell>
        <mxCell id="Z3845SJDid5yeBMDomHs-167" value="" style="endArrow=none;html=1;entryX=0.415;entryY=0.001;entryDx=0;entryDy=0;entryPerimeter=0;" edge="1" parent="1" target="Z3845SJDid5yeBMDomHs-163">
          <mxGeometry width="50" height="50" relative="1" as="geometry">
            <mxPoint x="630" y="520" as="sourcePoint" />
            <mxPoint x="680" y="470" as="targetPoint" />
          </mxGeometry>
        </mxCell>
        <mxCell id="Z3845SJDid5yeBMDomHs-168" value="" style="endArrow=none;html=1;" edge="1" parent="1">
          <mxGeometry width="50" height="50" relative="1" as="geometry">
            <mxPoint x="579.9999999999999" y="560" as="sourcePoint" />
            <mxPoint x="630" y="560" as="targetPoint" />
          </mxGeometry>
        </mxCell>
        <mxCell id="Z3845SJDid5yeBMDomHs-169" value="" style="endArrow=none;html=1;" edge="1" parent="1">
          <mxGeometry width="50" height="50" relative="1" as="geometry">
            <mxPoint x="590" y="600" as="sourcePoint" />
            <mxPoint x="590" y="560" as="targetPoint" />
          </mxGeometry>
        </mxCell>
        <mxCell id="Z3845SJDid5yeBMDomHs-170" value="" style="endArrow=none;html=1;" edge="1" parent="1">
          <mxGeometry width="50" height="50" relative="1" as="geometry">
            <mxPoint x="630" y="600" as="sourcePoint" />
            <mxPoint x="630" y="560" as="targetPoint" />
          </mxGeometry>
        </mxCell>
        <mxCell id="Z3845SJDid5yeBMDomHs-171" style="edgeStyle=orthogonalEdgeStyle;rounded=0;orthogonalLoop=1;jettySize=auto;html=1;exitX=0;exitY=0.75;exitDx=0;exitDy=0;" edge="1" parent="1" source="Z3845SJDid5yeBMDomHs-172">
          <mxGeometry relative="1" as="geometry">
            <mxPoint x="239.66666666666674" y="510" as="targetPoint" />
          </mxGeometry>
        </mxCell>
        <mxCell id="Z3845SJDid5yeBMDomHs-172" value="" style="rounded=0;whiteSpace=wrap;html=1;" vertex="1" parent="1">
          <mxGeometry x="240" y="480" width="120" height="120" as="geometry" />
        </mxCell>
        <mxCell id="Z3845SJDid5yeBMDomHs-173" value="" style="endArrow=none;html=1;entryX=1;entryY=0.333;entryDx=0;entryDy=0;entryPerimeter=0;" edge="1" parent="1" target="Z3845SJDid5yeBMDomHs-172">
          <mxGeometry width="50" height="50" relative="1" as="geometry">
            <mxPoint x="239.9999999999999" y="520" as="sourcePoint" />
            <mxPoint x="290" y="470" as="targetPoint" />
          </mxGeometry>
        </mxCell>
        <mxCell id="Z3845SJDid5yeBMDomHs-174" value="" style="endArrow=none;html=1;entryX=0.082;entryY=0.001;entryDx=0;entryDy=0;entryPerimeter=0;" edge="1" parent="1" target="Z3845SJDid5yeBMDomHs-172">
          <mxGeometry width="50" height="50" relative="1" as="geometry">
            <mxPoint x="249.9999999999999" y="520" as="sourcePoint" />
            <mxPoint x="300" y="470" as="targetPoint" />
          </mxGeometry>
        </mxCell>
        <mxCell id="Z3845SJDid5yeBMDomHs-175" value="" style="endArrow=none;html=1;entryX=0.916;entryY=0.004;entryDx=0;entryDy=0;entryPerimeter=0;" edge="1" parent="1" target="Z3845SJDid5yeBMDomHs-172">
          <mxGeometry width="50" height="50" relative="1" as="geometry">
            <mxPoint x="349.9999999999999" y="520" as="sourcePoint" />
            <mxPoint x="400" y="470" as="targetPoint" />
          </mxGeometry>
        </mxCell>
        <mxCell id="Z3845SJDid5yeBMDomHs-176" value="" style="endArrow=none;html=1;entryX=0.415;entryY=0.001;entryDx=0;entryDy=0;entryPerimeter=0;" edge="1" parent="1" target="Z3845SJDid5yeBMDomHs-172">
          <mxGeometry width="50" height="50" relative="1" as="geometry">
            <mxPoint x="289.9999999999999" y="520" as="sourcePoint" />
            <mxPoint x="340" y="470" as="targetPoint" />
          </mxGeometry>
        </mxCell>
        <mxCell id="Z3845SJDid5yeBMDomHs-177" value="" style="endArrow=none;html=1;" edge="1" parent="1">
          <mxGeometry width="50" height="50" relative="1" as="geometry">
            <mxPoint x="239.9999999999999" y="560" as="sourcePoint" />
            <mxPoint x="289.9999999999999" y="560" as="targetPoint" />
          </mxGeometry>
        </mxCell>
        <mxCell id="Z3845SJDid5yeBMDomHs-178" value="" style="endArrow=none;html=1;" edge="1" parent="1">
          <mxGeometry width="50" height="50" relative="1" as="geometry">
            <mxPoint x="249.9999999999999" y="600" as="sourcePoint" />
            <mxPoint x="249.9999999999999" y="560" as="targetPoint" />
          </mxGeometry>
        </mxCell>
        <mxCell id="Z3845SJDid5yeBMDomHs-179" value="" style="endArrow=none;html=1;" edge="1" parent="1">
          <mxGeometry width="50" height="50" relative="1" as="geometry">
            <mxPoint x="289.9999999999999" y="600" as="sourcePoint" />
            <mxPoint x="289.9999999999999" y="560" as="targetPoint" />
          </mxGeometry>
        </mxCell>
        <mxCell id="Z3845SJDid5yeBMDomHs-180" style="edgeStyle=orthogonalEdgeStyle;rounded=0;orthogonalLoop=1;jettySize=auto;html=1;exitX=0;exitY=0.75;exitDx=0;exitDy=0;" edge="1" parent="1" source="Z3845SJDid5yeBMDomHs-181">
          <mxGeometry relative="1" as="geometry">
            <mxPoint x="399.66666666666674" y="510" as="targetPoint" />
          </mxGeometry>
        </mxCell>
        <mxCell id="Z3845SJDid5yeBMDomHs-181" value="" style="rounded=0;whiteSpace=wrap;html=1;" vertex="1" parent="1">
          <mxGeometry x="400" y="480" width="120" height="120" as="geometry" />
        </mxCell>
        <mxCell id="Z3845SJDid5yeBMDomHs-182" value="" style="endArrow=none;html=1;entryX=1;entryY=0.333;entryDx=0;entryDy=0;entryPerimeter=0;" edge="1" parent="1" target="Z3845SJDid5yeBMDomHs-181">
          <mxGeometry width="50" height="50" relative="1" as="geometry">
            <mxPoint x="399.9999999999999" y="520" as="sourcePoint" />
            <mxPoint x="450" y="470" as="targetPoint" />
          </mxGeometry>
        </mxCell>
        <mxCell id="Z3845SJDid5yeBMDomHs-183" value="" style="endArrow=none;html=1;entryX=0.082;entryY=0.001;entryDx=0;entryDy=0;entryPerimeter=0;" edge="1" parent="1" target="Z3845SJDid5yeBMDomHs-181">
          <mxGeometry width="50" height="50" relative="1" as="geometry">
            <mxPoint x="410" y="520" as="sourcePoint" />
            <mxPoint x="460" y="470" as="targetPoint" />
          </mxGeometry>
        </mxCell>
        <mxCell id="Z3845SJDid5yeBMDomHs-184" value="" style="endArrow=none;html=1;entryX=0.916;entryY=0.004;entryDx=0;entryDy=0;entryPerimeter=0;" edge="1" parent="1" target="Z3845SJDid5yeBMDomHs-181">
          <mxGeometry width="50" height="50" relative="1" as="geometry">
            <mxPoint x="510" y="520" as="sourcePoint" />
            <mxPoint x="560" y="470" as="targetPoint" />
          </mxGeometry>
        </mxCell>
        <mxCell id="Z3845SJDid5yeBMDomHs-185" value="" style="endArrow=none;html=1;entryX=0.415;entryY=0.001;entryDx=0;entryDy=0;entryPerimeter=0;" edge="1" parent="1" target="Z3845SJDid5yeBMDomHs-181">
          <mxGeometry width="50" height="50" relative="1" as="geometry">
            <mxPoint x="450" y="520" as="sourcePoint" />
            <mxPoint x="500" y="470" as="targetPoint" />
          </mxGeometry>
        </mxCell>
        <mxCell id="Z3845SJDid5yeBMDomHs-186" value="" style="endArrow=none;html=1;" edge="1" parent="1">
          <mxGeometry width="50" height="50" relative="1" as="geometry">
            <mxPoint x="399.9999999999999" y="560" as="sourcePoint" />
            <mxPoint x="450" y="560" as="targetPoint" />
          </mxGeometry>
        </mxCell>
        <mxCell id="Z3845SJDid5yeBMDomHs-187" value="" style="endArrow=none;html=1;" edge="1" parent="1">
          <mxGeometry width="50" height="50" relative="1" as="geometry">
            <mxPoint x="410" y="600" as="sourcePoint" />
            <mxPoint x="410" y="560" as="targetPoint" />
          </mxGeometry>
        </mxCell>
        <mxCell id="Z3845SJDid5yeBMDomHs-188" value="" style="endArrow=none;html=1;" edge="1" parent="1">
          <mxGeometry width="50" height="50" relative="1" as="geometry">
            <mxPoint x="450" y="600" as="sourcePoint" />
            <mxPoint x="450" y="560" as="targetPoint" />
          </mxGeometry>
        </mxCell>
        <mxCell id="Z3845SJDid5yeBMDomHs-189" value="0" style="text;html=1;strokeColor=none;fillColor=none;align=center;verticalAlign=middle;whiteSpace=wrap;rounded=0;" vertex="1" parent="1">
          <mxGeometry x="90" y="570" width="40" height="20" as="geometry" />
        </mxCell>
        <mxCell id="Z3845SJDid5yeBMDomHs-190" value="1" style="text;html=1;strokeColor=none;fillColor=none;align=center;verticalAlign=middle;whiteSpace=wrap;rounded=0;" vertex="1" parent="1">
          <mxGeometry x="590" y="570" width="40" height="20" as="geometry" />
        </mxCell>
        <mxCell id="Z3845SJDid5yeBMDomHs-191" value="0" style="text;html=1;strokeColor=none;fillColor=none;align=center;verticalAlign=middle;whiteSpace=wrap;rounded=0;" vertex="1" parent="1">
          <mxGeometry x="250" y="570" width="40" height="20" as="geometry" />
        </mxCell>
        <mxCell id="Z3845SJDid5yeBMDomHs-192" value="0" style="text;html=1;strokeColor=none;fillColor=none;align=center;verticalAlign=middle;whiteSpace=wrap;rounded=0;" vertex="1" parent="1">
          <mxGeometry x="410" y="570" width="40" height="20" as="geometry" />
        </mxCell>
        <mxCell id="Z3845SJDid5yeBMDomHs-193" value="0" style="text;html=1;strokeColor=none;fillColor=none;align=center;verticalAlign=middle;whiteSpace=wrap;rounded=0;" vertex="1" parent="1">
          <mxGeometry x="90" y="490" width="40" height="20" as="geometry" />
        </mxCell>
        <mxCell id="Z3845SJDid5yeBMDomHs-194" value="1" style="text;html=1;strokeColor=none;fillColor=none;align=center;verticalAlign=middle;whiteSpace=wrap;rounded=0;" vertex="1" parent="1">
          <mxGeometry x="590" y="490" width="40" height="20" as="geometry" />
        </mxCell>
        <mxCell id="Z3845SJDid5yeBMDomHs-195" value="0" style="text;html=1;strokeColor=none;fillColor=none;align=center;verticalAlign=middle;whiteSpace=wrap;rounded=0;" vertex="1" parent="1">
          <mxGeometry x="250" y="490" width="40" height="20" as="geometry" />
        </mxCell>
        <mxCell id="Z3845SJDid5yeBMDomHs-196" value="0" style="text;html=1;strokeColor=none;fillColor=none;align=center;verticalAlign=middle;whiteSpace=wrap;rounded=0;" vertex="1" parent="1">
          <mxGeometry x="410" y="490" width="40" height="20" as="geometry" />
        </mxCell>
        <mxCell id="Z3845SJDid5yeBMDomHs-197" value="56" style="text;html=1;strokeColor=none;fillColor=none;align=center;verticalAlign=middle;whiteSpace=wrap;rounded=0;" vertex="1" parent="1">
          <mxGeometry x="140" y="490" width="40" height="20" as="geometry" />
        </mxCell>
        <mxCell id="Z3845SJDid5yeBMDomHs-198" value="117" style="text;html=1;strokeColor=none;fillColor=none;align=center;verticalAlign=middle;whiteSpace=wrap;rounded=0;" vertex="1" parent="1">
          <mxGeometry x="640" y="490" width="40" height="20" as="geometry" />
        </mxCell>
        <mxCell id="Z3845SJDid5yeBMDomHs-199" value="53" style="text;html=1;strokeColor=none;fillColor=none;align=center;verticalAlign=middle;whiteSpace=wrap;rounded=0;" vertex="1" parent="1">
          <mxGeometry x="300" y="490" width="40" height="20" as="geometry" />
        </mxCell>
        <mxCell id="Z3845SJDid5yeBMDomHs-200" value="167" style="text;html=1;strokeColor=none;fillColor=none;align=center;verticalAlign=middle;whiteSpace=wrap;rounded=0;" vertex="1" parent="1">
          <mxGeometry x="460" y="490" width="40" height="20" as="geometry" />
        </mxCell>
        <mxCell id="Z3845SJDid5yeBMDomHs-202" value="" style="endArrow=classic;html=1;" edge="1" parent="1">
          <mxGeometry width="50" height="50" relative="1" as="geometry">
            <mxPoint x="200" y="490" as="sourcePoint" />
            <mxPoint x="239.9999999999999" y="490" as="targetPoint" />
          </mxGeometry>
        </mxCell>
        <mxCell id="Z3845SJDid5yeBMDomHs-203" value="" style="endArrow=classic;html=1;" edge="1" parent="1">
          <mxGeometry width="50" height="50" relative="1" as="geometry">
            <mxPoint x="359.9999999999999" y="490" as="sourcePoint" />
            <mxPoint x="399.9999999999999" y="490" as="targetPoint" />
          </mxGeometry>
        </mxCell>
        <mxCell id="Z3845SJDid5yeBMDomHs-204" value="" style="endArrow=classic;html=1;" edge="1" parent="1">
          <mxGeometry width="50" height="50" relative="1" as="geometry">
            <mxPoint x="399.9999999999999" y="499.58000000000004" as="sourcePoint" />
            <mxPoint x="359.9999999999999" y="499.58000000000004" as="targetPoint" />
          </mxGeometry>
        </mxCell>
        <mxCell id="Z3845SJDid5yeBMDomHs-205" value="" style="endArrow=classic;html=1;" edge="1" parent="1">
          <mxGeometry width="50" height="50" relative="1" as="geometry">
            <mxPoint x="239.9999999999999" y="499.58000000000004" as="sourcePoint" />
            <mxPoint x="200" y="499.58000000000004" as="targetPoint" />
          </mxGeometry>
        </mxCell>
        <mxCell id="Z3845SJDid5yeBMDomHs-207" value="" style="endArrow=classic;html=1;entryX=1.019;entryY=0.162;entryDx=0;entryDy=0;entryPerimeter=0;" edge="1" parent="1" target="Z3845SJDid5yeBMDomHs-181">
          <mxGeometry width="50" height="50" relative="1" as="geometry">
            <mxPoint x="79.99999999999989" y="500" as="sourcePoint" />
            <mxPoint x="740" y="520" as="targetPoint" />
            <Array as="points">
              <mxPoint x="60" y="500" />
              <mxPoint x="60" y="460" />
              <mxPoint x="560" y="460" />
              <mxPoint x="560" y="499" />
            </Array>
          </mxGeometry>
        </mxCell>
        <mxCell id="Z3845SJDid5yeBMDomHs-208" value="" style="endArrow=classic;html=1;entryX=-0.014;entryY=0.101;entryDx=0;entryDy=0;entryPerimeter=0;exitX=0.999;exitY=0.105;exitDx=0;exitDy=0;exitPerimeter=0;" edge="1" parent="1" target="Z3845SJDid5yeBMDomHs-154" source="Z3845SJDid5yeBMDomHs-181">
          <mxGeometry width="50" height="50" relative="1" as="geometry">
            <mxPoint x="530" y="492" as="sourcePoint" />
            <mxPoint x="40" y="490" as="targetPoint" />
            <Array as="points">
              <mxPoint x="540" y="492" />
              <mxPoint x="540" y="440" />
              <mxPoint x="40" y="440" />
              <mxPoint x="40" y="492" />
            </Array>
          </mxGeometry>
        </mxCell>
        <mxCell id="Z3845SJDid5yeBMDomHs-209" value="" style="endArrow=classic;html=1;" edge="1" parent="1">
          <mxGeometry width="50" height="50" relative="1" as="geometry">
            <mxPoint x="209.9999999999999" y="600" as="sourcePoint" />
            <mxPoint x="240" y="495" as="targetPoint" />
            <Array as="points">
              <mxPoint x="210" y="495" />
            </Array>
          </mxGeometry>
        </mxCell>
        <mxCell id="Z3845SJDid5yeBMDomHs-210" value="802" style="text;html=1;strokeColor=none;fillColor=none;align=center;verticalAlign=middle;whiteSpace=wrap;rounded=0;fontColor=#FF1100;" vertex="1" parent="1">
          <mxGeometry x="90" y="460" width="40" height="20" as="geometry" />
        </mxCell>
        <mxCell id="Z3845SJDid5yeBMDomHs-211" value="213" style="text;html=1;strokeColor=none;fillColor=none;align=center;verticalAlign=middle;whiteSpace=wrap;rounded=0;fontColor=#FF1100;" vertex="1" parent="1">
          <mxGeometry x="590" y="460" width="40" height="20" as="geometry" />
        </mxCell>
        <mxCell id="Z3845SJDid5yeBMDomHs-212" value="462" style="text;html=1;strokeColor=none;fillColor=none;align=center;verticalAlign=middle;whiteSpace=wrap;rounded=0;fontColor=#FF1100;" vertex="1" parent="1">
          <mxGeometry x="250" y="460" width="40" height="20" as="geometry" />
        </mxCell>
        <mxCell id="Z3845SJDid5yeBMDomHs-213" value="559" style="text;html=1;strokeColor=none;fillColor=none;align=center;verticalAlign=middle;whiteSpace=wrap;rounded=0;fontColor=#FF1100;" vertex="1" parent="1">
          <mxGeometry x="410" y="460" width="40" height="20" as="geometry" />
        </mxCell>
        <mxCell id="Z3845SJDid5yeBMDomHs-214" value="&lt;font color=&quot;#000000&quot;&gt;( 2 )&lt;/font&gt;" style="text;html=1;strokeColor=none;fillColor=none;align=center;verticalAlign=middle;whiteSpace=wrap;rounded=0;fontColor=#FF1100;" vertex="1" parent="1">
          <mxGeometry x="40" y="420" width="40" height="20" as="geometry" />
        </mxCell>
        <mxCell id="Z3845SJDid5yeBMDomHs-215" value="pav" style="text;html=1;strokeColor=none;fillColor=none;align=center;verticalAlign=middle;whiteSpace=wrap;rounded=0;" vertex="1" parent="1">
          <mxGeometry x="190" y="600" width="40" height="20" as="geometry" />
        </mxCell>
        <mxCell id="Z3845SJDid5yeBMDomHs-216" style="edgeStyle=orthogonalEdgeStyle;rounded=0;orthogonalLoop=1;jettySize=auto;html=1;exitX=0;exitY=0.75;exitDx=0;exitDy=0;" edge="1" parent="1" source="Z3845SJDid5yeBMDomHs-217">
          <mxGeometry relative="1" as="geometry">
            <mxPoint x="79.66666666666674" y="710" as="targetPoint" />
          </mxGeometry>
        </mxCell>
        <mxCell id="Z3845SJDid5yeBMDomHs-217" value="" style="rounded=0;whiteSpace=wrap;html=1;" vertex="1" parent="1">
          <mxGeometry x="80" y="680" width="120" height="120" as="geometry" />
        </mxCell>
        <mxCell id="Z3845SJDid5yeBMDomHs-218" value="" style="endArrow=none;html=1;entryX=1;entryY=0.333;entryDx=0;entryDy=0;entryPerimeter=0;" edge="1" parent="1" target="Z3845SJDid5yeBMDomHs-217">
          <mxGeometry width="50" height="50" relative="1" as="geometry">
            <mxPoint x="79.99999999999989" y="720" as="sourcePoint" />
            <mxPoint x="130" y="670" as="targetPoint" />
          </mxGeometry>
        </mxCell>
        <mxCell id="Z3845SJDid5yeBMDomHs-219" value="" style="endArrow=none;html=1;entryX=0.082;entryY=0.001;entryDx=0;entryDy=0;entryPerimeter=0;" edge="1" parent="1" target="Z3845SJDid5yeBMDomHs-217">
          <mxGeometry width="50" height="50" relative="1" as="geometry">
            <mxPoint x="89.99999999999989" y="720" as="sourcePoint" />
            <mxPoint x="140" y="670" as="targetPoint" />
          </mxGeometry>
        </mxCell>
        <mxCell id="Z3845SJDid5yeBMDomHs-220" value="" style="endArrow=none;html=1;entryX=0.916;entryY=0.004;entryDx=0;entryDy=0;entryPerimeter=0;" edge="1" parent="1" target="Z3845SJDid5yeBMDomHs-217">
          <mxGeometry width="50" height="50" relative="1" as="geometry">
            <mxPoint x="189.9999999999999" y="720" as="sourcePoint" />
            <mxPoint x="240" y="670" as="targetPoint" />
          </mxGeometry>
        </mxCell>
        <mxCell id="Z3845SJDid5yeBMDomHs-221" value="" style="endArrow=none;html=1;entryX=0.415;entryY=0.001;entryDx=0;entryDy=0;entryPerimeter=0;" edge="1" parent="1" target="Z3845SJDid5yeBMDomHs-217">
          <mxGeometry width="50" height="50" relative="1" as="geometry">
            <mxPoint x="129.9999999999999" y="720" as="sourcePoint" />
            <mxPoint x="180" y="670" as="targetPoint" />
          </mxGeometry>
        </mxCell>
        <mxCell id="Z3845SJDid5yeBMDomHs-222" value="" style="endArrow=none;html=1;" edge="1" parent="1">
          <mxGeometry width="50" height="50" relative="1" as="geometry">
            <mxPoint x="79.99999999999989" y="760" as="sourcePoint" />
            <mxPoint x="129.9999999999999" y="760" as="targetPoint" />
          </mxGeometry>
        </mxCell>
        <mxCell id="Z3845SJDid5yeBMDomHs-223" value="" style="endArrow=none;html=1;" edge="1" parent="1">
          <mxGeometry width="50" height="50" relative="1" as="geometry">
            <mxPoint x="89.99999999999989" y="800" as="sourcePoint" />
            <mxPoint x="89.99999999999989" y="760" as="targetPoint" />
          </mxGeometry>
        </mxCell>
        <mxCell id="Z3845SJDid5yeBMDomHs-224" value="" style="endArrow=none;html=1;" edge="1" parent="1">
          <mxGeometry width="50" height="50" relative="1" as="geometry">
            <mxPoint x="129.9999999999999" y="800" as="sourcePoint" />
            <mxPoint x="129.9999999999999" y="760" as="targetPoint" />
          </mxGeometry>
        </mxCell>
        <mxCell id="Z3845SJDid5yeBMDomHs-225" style="edgeStyle=orthogonalEdgeStyle;rounded=0;orthogonalLoop=1;jettySize=auto;html=1;exitX=0;exitY=0.75;exitDx=0;exitDy=0;" edge="1" parent="1" source="Z3845SJDid5yeBMDomHs-226">
          <mxGeometry relative="1" as="geometry">
            <mxPoint x="239.66666666666674" y="710" as="targetPoint" />
          </mxGeometry>
        </mxCell>
        <mxCell id="Z3845SJDid5yeBMDomHs-226" value="" style="rounded=0;whiteSpace=wrap;html=1;" vertex="1" parent="1">
          <mxGeometry x="240" y="680" width="120" height="120" as="geometry" />
        </mxCell>
        <mxCell id="Z3845SJDid5yeBMDomHs-227" value="" style="endArrow=none;html=1;entryX=1;entryY=0.333;entryDx=0;entryDy=0;entryPerimeter=0;" edge="1" parent="1" target="Z3845SJDid5yeBMDomHs-226">
          <mxGeometry width="50" height="50" relative="1" as="geometry">
            <mxPoint x="239.9999999999999" y="720" as="sourcePoint" />
            <mxPoint x="290" y="670" as="targetPoint" />
          </mxGeometry>
        </mxCell>
        <mxCell id="Z3845SJDid5yeBMDomHs-228" value="" style="endArrow=none;html=1;entryX=0.082;entryY=0.001;entryDx=0;entryDy=0;entryPerimeter=0;" edge="1" parent="1" target="Z3845SJDid5yeBMDomHs-226">
          <mxGeometry width="50" height="50" relative="1" as="geometry">
            <mxPoint x="250" y="720" as="sourcePoint" />
            <mxPoint x="300" y="670" as="targetPoint" />
          </mxGeometry>
        </mxCell>
        <mxCell id="Z3845SJDid5yeBMDomHs-229" value="" style="endArrow=none;html=1;entryX=0.916;entryY=0.004;entryDx=0;entryDy=0;entryPerimeter=0;" edge="1" parent="1" target="Z3845SJDid5yeBMDomHs-226">
          <mxGeometry width="50" height="50" relative="1" as="geometry">
            <mxPoint x="350" y="720" as="sourcePoint" />
            <mxPoint x="400" y="670" as="targetPoint" />
          </mxGeometry>
        </mxCell>
        <mxCell id="Z3845SJDid5yeBMDomHs-230" value="" style="endArrow=none;html=1;entryX=0.415;entryY=0.001;entryDx=0;entryDy=0;entryPerimeter=0;" edge="1" parent="1" target="Z3845SJDid5yeBMDomHs-226">
          <mxGeometry width="50" height="50" relative="1" as="geometry">
            <mxPoint x="290" y="720" as="sourcePoint" />
            <mxPoint x="340" y="670" as="targetPoint" />
          </mxGeometry>
        </mxCell>
        <mxCell id="Z3845SJDid5yeBMDomHs-231" value="" style="endArrow=none;html=1;" edge="1" parent="1">
          <mxGeometry width="50" height="50" relative="1" as="geometry">
            <mxPoint x="239.9999999999999" y="760" as="sourcePoint" />
            <mxPoint x="290" y="760" as="targetPoint" />
          </mxGeometry>
        </mxCell>
        <mxCell id="Z3845SJDid5yeBMDomHs-232" value="" style="endArrow=none;html=1;" edge="1" parent="1">
          <mxGeometry width="50" height="50" relative="1" as="geometry">
            <mxPoint x="250" y="800" as="sourcePoint" />
            <mxPoint x="250" y="760" as="targetPoint" />
          </mxGeometry>
        </mxCell>
        <mxCell id="Z3845SJDid5yeBMDomHs-233" value="" style="endArrow=none;html=1;" edge="1" parent="1">
          <mxGeometry width="50" height="50" relative="1" as="geometry">
            <mxPoint x="290" y="800" as="sourcePoint" />
            <mxPoint x="290" y="760" as="targetPoint" />
          </mxGeometry>
        </mxCell>
        <mxCell id="Z3845SJDid5yeBMDomHs-243" value="0" style="text;html=1;strokeColor=none;fillColor=none;align=center;verticalAlign=middle;whiteSpace=wrap;rounded=0;" vertex="1" parent="1">
          <mxGeometry x="90" y="770" width="40" height="20" as="geometry" />
        </mxCell>
        <mxCell id="Z3845SJDid5yeBMDomHs-244" value="0" style="text;html=1;strokeColor=none;fillColor=none;align=center;verticalAlign=middle;whiteSpace=wrap;rounded=0;" vertex="1" parent="1">
          <mxGeometry x="250" y="770" width="40" height="20" as="geometry" />
        </mxCell>
        <mxCell id="Z3845SJDid5yeBMDomHs-246" value="0" style="text;html=1;strokeColor=none;fillColor=none;align=center;verticalAlign=middle;whiteSpace=wrap;rounded=0;" vertex="1" parent="1">
          <mxGeometry x="90" y="690" width="40" height="20" as="geometry" />
        </mxCell>
        <mxCell id="Z3845SJDid5yeBMDomHs-247" value="0" style="text;html=1;strokeColor=none;fillColor=none;align=center;verticalAlign=middle;whiteSpace=wrap;rounded=0;" vertex="1" parent="1">
          <mxGeometry x="250" y="690" width="40" height="20" as="geometry" />
        </mxCell>
        <mxCell id="Z3845SJDid5yeBMDomHs-249" value="56" style="text;html=1;strokeColor=none;fillColor=none;align=center;verticalAlign=middle;whiteSpace=wrap;rounded=0;" vertex="1" parent="1">
          <mxGeometry x="140" y="690" width="40" height="20" as="geometry" />
        </mxCell>
        <mxCell id="Z3845SJDid5yeBMDomHs-250" value="264" style="text;html=1;strokeColor=none;fillColor=none;align=center;verticalAlign=middle;whiteSpace=wrap;rounded=0;" vertex="1" parent="1">
          <mxGeometry x="300" y="690" width="40" height="20" as="geometry" />
        </mxCell>
        <mxCell id="Z3845SJDid5yeBMDomHs-252" value="" style="endArrow=classic;html=1;" edge="1" parent="1">
          <mxGeometry width="50" height="50" relative="1" as="geometry">
            <mxPoint x="199.9999999999999" y="690" as="sourcePoint" />
            <mxPoint x="239.9999999999999" y="690" as="targetPoint" />
          </mxGeometry>
        </mxCell>
        <mxCell id="Z3845SJDid5yeBMDomHs-255" value="" style="endArrow=classic;html=1;" edge="1" parent="1">
          <mxGeometry width="50" height="50" relative="1" as="geometry">
            <mxPoint x="239.9999999999999" y="699.5799999999999" as="sourcePoint" />
            <mxPoint x="199.9999999999999" y="699.5799999999999" as="targetPoint" />
          </mxGeometry>
        </mxCell>
        <mxCell id="Z3845SJDid5yeBMDomHs-256" value="" style="endArrow=classic;html=1;" edge="1" parent="1">
          <mxGeometry width="50" height="50" relative="1" as="geometry">
            <mxPoint x="49.999999999999886" y="700" as="sourcePoint" />
            <mxPoint x="360" y="699" as="targetPoint" />
            <Array as="points">
              <mxPoint x="30" y="700" />
              <mxPoint x="30" y="660" />
              <mxPoint x="400" y="660" />
              <mxPoint x="400" y="699" />
            </Array>
          </mxGeometry>
        </mxCell>
        <mxCell id="Z3845SJDid5yeBMDomHs-257" value="" style="endArrow=classic;html=1;entryX=-0.014;entryY=0.101;entryDx=0;entryDy=0;entryPerimeter=0;exitX=1.004;exitY=0.1;exitDx=0;exitDy=0;exitPerimeter=0;" edge="1" parent="1" source="Z3845SJDid5yeBMDomHs-226" target="Z3845SJDid5yeBMDomHs-217">
          <mxGeometry width="50" height="50" relative="1" as="geometry">
            <mxPoint x="400" y="692" as="sourcePoint" />
            <mxPoint x="40" y="690" as="targetPoint" />
            <Array as="points">
              <mxPoint x="380" y="692" />
              <mxPoint x="380" y="640" />
              <mxPoint x="40" y="640" />
              <mxPoint x="40" y="692" />
            </Array>
          </mxGeometry>
        </mxCell>
        <mxCell id="Z3845SJDid5yeBMDomHs-258" value="" style="endArrow=classic;html=1;" edge="1" parent="1">
          <mxGeometry width="50" height="50" relative="1" as="geometry">
            <mxPoint x="209.9999999999999" y="800" as="sourcePoint" />
            <mxPoint x="239.9999999999999" y="695" as="targetPoint" />
            <Array as="points">
              <mxPoint x="210" y="695" />
            </Array>
          </mxGeometry>
        </mxCell>
        <mxCell id="Z3845SJDid5yeBMDomHs-259" value="802" style="text;html=1;strokeColor=none;fillColor=none;align=center;verticalAlign=middle;whiteSpace=wrap;rounded=0;fontColor=#FF1100;" vertex="1" parent="1">
          <mxGeometry x="90" y="660" width="40" height="20" as="geometry" />
        </mxCell>
        <mxCell id="Z3845SJDid5yeBMDomHs-260" value="462" style="text;html=1;strokeColor=none;fillColor=none;align=center;verticalAlign=middle;whiteSpace=wrap;rounded=0;fontColor=#FF1100;" vertex="1" parent="1">
          <mxGeometry x="250" y="660" width="40" height="20" as="geometry" />
        </mxCell>
        <mxCell id="Z3845SJDid5yeBMDomHs-262" value="pav" style="text;html=1;strokeColor=none;fillColor=none;align=center;verticalAlign=middle;whiteSpace=wrap;rounded=0;" vertex="1" parent="1">
          <mxGeometry x="190" y="800" width="40" height="20" as="geometry" />
        </mxCell>
      </root>
    </mxGraphModel>
  </diagram>
</mxfile>
